<svg width="25" height="25" xmlns="http://www.w3.org/2000/svg" xmlns:xlink="http://www.w3.org/1999/xlink" overflow="hidden"><defs><clipPath id="clip0"><rect x="903" y="210" width="25" height="25"/></clipPath><clipPath id="clip1"><rect x="907" y="213" width="17" height="18"/></clipPath><clipPath id="clip2"><rect x="907" y="213" width="17" height="18"/></clipPath><clipPath id="clip3"><rect x="907" y="213" width="17" height="18"/></clipPath></defs><g clip-path="url(#clip0)" transform="translate(-903 -210)"><path d="M903 214C903 211.791 904.791 210 907 210L923 210C925.209 210 927 211.791 927 214L927 230C927 232.209 925.209 234 923 234L907 234C904.791 234 903 232.209 903 230Z" fill="#FFD066" fill-rule="evenodd"/><g clip-path="url(#clip1)"><g clip-path="url(#clip2)"><g clip-path="url(#clip3)"><path d="M3.70104 10.2 7.10104 6.8 5.20625 6.8C5.82604 5.59583 7.08333 4.76354 8.53542 4.76354 9.47396 4.76354 10.3417 5.11771 10.9969 5.70208L14.45 5.70208C13.4052 3.47083 11.1385 1.94792 8.53542 1.94792 5.50729 1.94792 2.95729 4.00208 2.21354 6.8L0.301042 6.8 3.70104 10.2Z" fill="#FFFFFF" transform="matrix(1 0 0 1.05882 907 213)"/><path d="M16.7521 10.2 13.3521 6.8 9.95208 10.2 11.8646 10.2C11.2448 11.4042 9.9875 12.2365 8.53542 12.2365 7.59688 12.2365 6.72917 11.8823 6.07396 11.2979L2.60312 11.2979C3.66563 13.5292 5.91458 15.0521 8.53542 15.0521 11.5635 15.0521 14.1135 12.9979 14.8573 10.2L16.7521 10.2Z" fill="#FFFFFF" transform="matrix(1 0 0 1.05882 907 213)"/></g></g></g></g></svg>